HIERARCHY
ROOT Hips
{
  OFFSET 0.0000 94.0000 0.0000
  CHANNELS 6 Xposition Yposition Zposition Yrotation Xrotation Zrotation
  JOINT Spine
  {
    OFFSET 0.0000 12.9947 0.0000
    CHANNELS 3 Yrotation Xrotation Zrotation
    JOINT Spine1
    {
      OFFSET 0.0000 12.7099 0.0000
      CHANNELS 3 Yrotation Xrotation Zrotation
      JOINT Spine2
      {
        OFFSET 0.0000 12.7829 0.0000
        CHANNELS 3 Yrotation Xrotation Zrotation
        JOINT LeftShoulder
        {
          OFFSET 7.0401 10.4351 1.9147
          CHANNELS 3 Yrotation Xrotation Zrotation
          JOINT LeftArm
          {
            OFFSET 0.0000 13.4599 0.0000
            CHANNELS 3 Yrotation Xrotation Zrotation
            JOINT LeftForeArm
            {
              OFFSET -0.0001 26.1000 0.0000
              CHANNELS 3 Yrotation Xrotation Zrotation
              JOINT LeftHand
              {
                OFFSET 0.0000 28.9001 0.0000
                CHANNELS 3 Yrotation Xrotation Zrotation
                JOINT LeftHandIndex1
                {
                  OFFSET -2.5612 8.0739 0.1030
                  CHANNELS 3 Yrotation Xrotation Zrotation
                  JOINT LeftHandIndex2
                  {
                    OFFSET 0.0000 4.5805 0.0000
                    CHANNELS 3 Yrotation Xrotation Zrotation
                    JOINT LeftHandIndex3
                    {
                      OFFSET 0.0000 2.8180 0.0000
                      CHANNELS 3 Yrotation Xrotation Zrotation
                      End Site
                      {
                        OFFSET 0.0000 1.3566 0.0000
                      }
                    }
                  }
                }
                JOINT LeftHandMiddle1
                {
                  OFFSET -0.5450 8.1365 0.1030
                  CHANNELS 3 Yrotation Xrotation Zrotation
                  JOINT LeftHandMiddle2
                  {
                    OFFSET 0.0000 4.7024 0.0000
                    CHANNELS 3 Yrotation Xrotation Zrotation
                    JOINT LeftHandMiddle3
                    {
                      OFFSET 0.0000 3.1016 0.0000
                      CHANNELS 3 Yrotation Xrotation Zrotation
                      End Site
                      {
                        OFFSET 0.0000 1.4991 0.0000
                      }
                    }
                  }
                }
                JOINT LeftHandPinky1
                {
                  OFFSET 3.1368 7.0181 0.1031
                  CHANNELS 3 Yrotation Xrotation Zrotation
                  JOINT LeftHandPinky2
                  {
                    OFFSET 0.0000 3.5540 0.0000
                    CHANNELS 3 Yrotation Xrotation Zrotation
                    JOINT LeftHandPinky3
                    {
                      OFFSET 0.0000 2.2339 0.0000
                      CHANNELS 3 Yrotation Xrotation Zrotation
                      End Site
                      {
                        OFFSET 0.0000 1.1205 0.0000
                      }
                    }
                  }
                }
                JOINT LeftHandRing1
                {
                  OFFSET 1.4405 7.8067 0.1031
                  CHANNELS 3 Yrotation Xrotation Zrotation
                  JOINT LeftHandRing2
                  {
                    OFFSET 0.0000 4.3922 0.0000
                    CHANNELS 3 Yrotation Xrotation Zrotation
                    JOINT LeftHandRing3
                    {
                      OFFSET 0.0000 2.8327 0.0000
                      CHANNELS 3 Yrotation Xrotation Zrotation
                      End Site
                      {
                        OFFSET 0.0000 1.3500 0.0000
                      }
                    }
                  }
                }
                JOINT LeftHandThumb1
                {
                  OFFSET -2.7863 2.0790 0.0946
                  CHANNELS 3 Yrotation Xrotation Zrotation
                  JOINT LeftHandThumb2
                  {
                    OFFSET 0.0000 3.9619 0.0000
                    CHANNELS 3 Yrotation Xrotation Zrotation
                    JOINT LeftHandThumb3
                    {
                      OFFSET 0.0000 3.0072 0.0000
                      CHANNELS 3 Yrotation Xrotation Zrotation
                      End Site
                      {
                        OFFSET 0.0000 1.7295 0.0000
                      }
                    }
                  }
                }
              }
            }
          }
        }
        JOINT Neck
        {
          OFFSET 0.0000 18.2093 0.0000
          CHANNELS 3 Yrotation Xrotation Zrotation
          JOINT Head
          {
            OFFSET 0.0000 11.0335 0.0000
            CHANNELS 3 Yrotation Xrotation Zrotation
            End Site
            {
              OFFSET 0.0000 8.0220 0.0000
            }
          }
        }
        JOINT RightShoulder
        {
          OFFSET -7.0401 10.4351 1.9147
          CHANNELS 3 Yrotation Xrotation Zrotation
          JOINT RightArm
          {
            OFFSET 0.0000 13.4599 0.0000
            CHANNELS 3 Yrotation Xrotation Zrotation
            JOINT RightForeArm
            {
              OFFSET 0.0000 26.1001 0.0000
              CHANNELS 3 Yrotation Xrotation Zrotation
              JOINT RightHand
              {
                OFFSET -0.0001 28.9001 -0.0001
                CHANNELS 3 Yrotation Xrotation Zrotation
                JOINT RightHandIndex1
                {
                  OFFSET 2.5611 8.0740 0.1030
                  CHANNELS 3 Yrotation Xrotation Zrotation
                  JOINT RightHandIndex2
                  {
                    OFFSET 0.0000 4.5805 -0.0001
                    CHANNELS 3 Yrotation Xrotation Zrotation
                    JOINT RightHandIndex3
                    {
                      OFFSET 0.0000 2.8180 0.0000
                      CHANNELS 3 Yrotation Xrotation Zrotation
                      End Site
                      {
                        OFFSET 0.0000 1.3566 0.0000
                      }
                    }
                  }
                }
                JOINT RightHandMiddle1
                {
                  OFFSET 0.5450 8.1366 0.1030
                  CHANNELS 3 Yrotation Xrotation Zrotation
                  JOINT RightHandMiddle2
                  {
                    OFFSET 0.0000 4.7024 -0.0001
                    CHANNELS 3 Yrotation Xrotation Zrotation
                    JOINT RightHandMiddle3
                    {
                      OFFSET 0.0000 3.1016 0.0000
                      CHANNELS 3 Yrotation Xrotation Zrotation
                      End Site
                      {
                        OFFSET 0.0000 1.4991 0.0000
                      }
                    }
                  }
                }
                JOINT RightHandPinky1
                {
                  OFFSET -3.1368 7.0181 0.1030
                  CHANNELS 3 Yrotation Xrotation Zrotation
                  JOINT RightHandPinky2
                  {
                    OFFSET 0.0000 3.5541 -0.0001
                    CHANNELS 3 Yrotation Xrotation Zrotation
                    JOINT RightHandPinky3
                    {
                      OFFSET 0.0000 2.2340 0.0000
                      CHANNELS 3 Yrotation Xrotation Zrotation
                      End Site
                      {
                        OFFSET 0.0000 1.1205 0.0000
                      }
                    }
                  }
                }
                JOINT RightHandRing1
                {
                  OFFSET -1.4405 7.8068 0.1030
                  CHANNELS 3 Yrotation Xrotation Zrotation
                  JOINT RightHandRing2
                  {
                    OFFSET 0.0000 4.3923 -0.0001
                    CHANNELS 3 Yrotation Xrotation Zrotation
                    JOINT RightHandRing3
                    {
                      OFFSET 0.0000 2.8327 0.0000
                      CHANNELS 3 Yrotation Xrotation Zrotation
                      End Site
                      {
                        OFFSET 0.0000 1.3500 0.0000
                      }
                    }
                  }
                }
                JOINT RightHandThumb1
                {
                  OFFSET 2.7863 2.0791 0.0945
                  CHANNELS 3 Yrotation Xrotation Zrotation
                  JOINT RightHandThumb2
                  {
                    OFFSET 0.0000 3.9620 -0.0001
                    CHANNELS 3 Yrotation Xrotation Zrotation
                    JOINT RightHandThumb3
                    {
                      OFFSET 0.0000 3.0072 -0.0001
                      CHANNELS 3 Yrotation Xrotation Zrotation
                      End Site
                      {
                        OFFSET 0.0000 1.7295 0.0000
                      }
                    }
                  }
                }
              }
            }
          }
        }
      }
    }
  }
  JOINT LeftUpLeg
  {
    OFFSET 8.1000 0.0000 0.0000
    CHANNELS 3 Yrotation Xrotation Zrotation
    JOINT LeftLeg
    {
      OFFSET 0.0000 43.2000 0.0000
      CHANNELS 3 Yrotation Xrotation Zrotation
      JOINT LeftFoot
      {
        OFFSET 0.0000 43.3000 0.0000
        CHANNELS 3 Yrotation Xrotation Zrotation
        JOINT LeftToeBase
        {
          OFFSET 0.0000 14.5727 0.0000
          CHANNELS 3 Yrotation Xrotation Zrotation
          End Site
          {
            OFFSET 0.0000 3.5000 0.0000
          }
        }
      }
    }
  }
  JOINT RightUpLeg
  {
    OFFSET -8.1000 0.0000 0.0000
    CHANNELS 3 Yrotation Xrotation Zrotation
    JOINT RightLeg
    {
      OFFSET 0.0000 43.2000 0.0000
      CHANNELS 3 Yrotation Xrotation Zrotation
      JOINT RightFoot
      {
        OFFSET 0.0000 43.3000 0.0000
        CHANNELS 3 Yrotation Xrotation Zrotation
        JOINT RightToeBase
        {
          OFFSET 0.0000 14.5727 0.0000
          CHANNELS 3 Yrotation Xrotation Zrotation
          End Site
          {
            OFFSET 0.0000 3.5000 0.0000
          }
        }
      }
    }
  }
}
MOTION
Frames: 9
Frame Time: 0.010000
-2.0835 101.9796 7.9471 0.0000 1.3762 0.9834 0.0000 0.0000 0.0000 0.0000 0.0000 0.0000 -23.3548 0.0000 0.0000 -270.0000 90.0000 0.0000 -8.1123 52.6086 26.9707 0.0000 0.0000 42.5539 0.0000 0.0000 0.0000 4.4556 17.5008 8.6883 0.0000 18.0000 0.0000 0.0000 17.9987 -0.0008 0.0000 17.9996 5.4001 0.0000 18.0001 0.0000 0.0001 18.0000 0.0001 -22.7691 18.0024 -13.2938 -0.0003 17.9994 0.0003 0.0000 18.0004 -0.0006 -11.4059 19.2849 -1.9366 0.0000 18.0000 0.0000 0.0000 17.9990 -0.0001 59.0812 -12.4334 28.1708 -0.3546 6.3513 -6.3900 -0.3550 6.3509 -6.3901 0.0000 0.0000 0.0000 12.7144 33.3792 -4.6475 270.0001 90.0000 0.0000 19.0356 60.5121 -8.8492 0.0000 0.0000 -50.3080 0.0000 0.0000 0.0000 -4.4558 17.5007 -8.6881 0.0000 18.0000 -0.0001 0.0000 17.9994 0.0002 -0.0001 17.9999 -5.3999 0.0000 18.0000 0.0000 0.0000 18.0000 0.0000 22.7693 18.0026 13.2939 0.0000 17.9989 0.0001 -0.0001 17.9992 0.0002 11.4057 19.2849 1.9367 0.0000 18.0000 0.0000 0.0000 17.9992 0.0000 -59.0813 -12.4333 -28.1704 0.3547 6.3506 6.3897 0.3549 6.3508 6.3902 -13.1124 -8.7687 -166.1355 0.0000 -24.2991 0.0826 -0.1744 64.6491 -0.1930 0.0000 24.6093 2.5234 -20.3631 -1.0709 164.4482 0.0000 -17.9166 -0.0827 0.1745 64.6492 0.1931 0.0000 25.1938 0.0955 
-1.9741 101.6432 8.1159 0.0000 1.3427 1.0656 0.0000 0.0000 0.0000 0.0000 0.0000 0.0000 -23.3830 0.0000 0.0000 -270.0000 90.0000 0.0000 -11.3533 49.5079 25.6158 0.0000 0.0000 40.9981 0.0000 0.0000 0.0000 4.4556 17.5008 8.6883 0.0000 18.0000 0.0000 0.0000 17.9988 -0.0008 0.0000 17.9996 5.4001 0.0000 18.0001 0.0000 0.0001 18.0000 0.0001 -22.7691 18.0024 -13.2938 -0.0003 17.9994 0.0003 -0.0001 18.0004 -0.0006 -11.4059 19.2849 -1.9366 0.0000 18.0000 0.0000 0.0000 17.9990 -0.0001 59.0813 -12.4334 28.1708 -0.3546 6.3513 -6.3900 -0.3550 6.3509 -6.3901 0.0000 0.0000 0.0000 13.0522 33.3277 -4.6416 270.0001 90.0000 0.0000 28.5726 59.1151 -1.2309 0.0000 0.0000 -49.7868 0.0000 0.0000 0.0000 -4.4558 17.5007 -8.6881 0.0000 18.0000 -0.0001 0.0000 17.9994 0.0002 0.0000 17.9999 -5.3999 0.0000 18.0000 0.0000 0.0000 18.0000 0.0000 22.7693 18.0026 13.2939 0.0000 17.9989 0.0001 0.0000 17.9992 0.0003 11.4057 19.2849 1.9367 0.0000 18.0000 0.0000 0.0000 17.9991 0.0000 -59.0813 -12.4333 -28.1704 0.3547 6.3506 6.3897 0.3549 6.3508 6.3902 -12.7070 -8.8359 -165.4465 0.0000 -24.5212 0.0826 -0.1744 64.6492 -0.1930 0.0000 24.5703 2.6569 -21.9034 -1.6623 163.0868 0.0000 -18.2177 -0.0827 0.1746 64.6491 0.1932 0.0000 25.2870 0.1231 
-1.8711 101.1115 8.2948 0.0000 1.3267 1.1518 0.0000 0.0000 0.0000 0.0000 0.0000 0.0000 -23.4204 0.0000 0.0000 -270.0000 90.0000 0.0000 -14.2975 46.1807 24.5063 0.0000 0.0000 39.3879 0.0000 0.0000 0.0000 4.4556 17.5008 8.6883 0.0000 18.0001 0.0000 0.0000 17.9987 -0.0008 0.0000 17.9996 5.4002 0.0000 18.0001 0.0000 0.0001 18.0000 0.0001 -22.7691 18.0024 -13.2938 -0.0002 17.9994 0.0003 -0.0001 18.0004 -0.0006 -11.4059 19.2849 -1.9366 0.0000 18.0000 0.0000 0.0000 17.9990 -0.0001 59.0813 -12.4334 28.1708 -0.3546 6.3513 -6.3900 -0.3550 6.3509 -6.3901 0.0000 0.0000 0.0000 13.4117 33.2547 -4.6306 270.0001 90.0000 0.0000 37.1688 56.9876 5.3601 0.0000 0.0000 -49.3145 0.0000 0.0000 0.0000 -4.4558 17.5007 -8.6881 0.0000 18.0000 0.0000 0.0000 17.9993 0.0002 0.0000 17.9999 -5.3999 0.0000 18.0000 0.0000 0.0000 18.0000 0.0000 22.7693 18.0026 13.2939 0.0000 17.9989 0.0001 -0.0001 17.9992 0.0002 11.4057 19.2849 1.9367 0.0000 18.0000 0.0000 0.0000 17.9992 0.0000 -59.0813 -12.4333 -28.1704 0.3547 6.3506 6.3897 0.3549 6.3508 6.3902 -12.2351 -8.9302 -164.7781 0.0000 -24.7651 0.0826 -0.1744 64.6491 -0.1930 0.0000 24.5299 2.7866 -23.4806 -2.3695 161.7646 0.0000 -18.5444 -0.0827 0.1746 64.6492 0.1932 0.0000 25.3915 0.1547 
-1.7882 100.3162 8.5016 0.0000 1.3465 1.2472 0.0000 0.0000 0.0000 0.0000 0.0000 0.0000 -23.4746 0.0000 0.0000 -270.0000 90.0000 0.0000 -17.1303 42.4787 23.2945 0.0000 0.0000 37.8814 0.0000 0.0000 0.0000 4.4556 17.5008 8.6883 0.0000 18.0001 0.0000 0.0000 17.9987 -0.0008 0.0000 17.9996 5.4001 0.0000 18.0000 0.0000 0.0001 18.0000 0.0001 -22.7691 18.0024 -13.2938 -0.0003 17.9994 0.0003 -0.0001 18.0004 -0.0006 -11.4059 19.2848 -1.9366 0.0000 18.0000 0.0000 0.0000 17.9990 -0.0001 59.0813 -12.4334 28.1708 -0.3546 6.3513 -6.3900 -0.3550 6.3509 -6.3901 0.0000 0.0000 0.0000 13.8151 33.1307 -4.6072 270.0001 90.0000 0.0000 44.3810 54.0874 10.7017 0.0000 0.0000 -49.0260 0.0000 0.0000 0.0000 -4.4558 17.5007 -8.6881 0.0000 18.0000 0.0000 0.0000 17.9994 0.0002 0.0000 17.9999 -5.3999 0.0000 18.0000 0.0000 0.0000 18.0000 0.0000 22.7693 18.0026 13.2939 0.0000 17.9989 0.0001 -0.0001 17.9992 0.0002 11.4057 19.2849 1.9367 0.0000 18.0000 0.0000 0.0000 17.9992 0.0000 -59.0813 -12.4333 -28.1704 0.3548 6.3506 6.3897 0.3549 6.3508 6.3902 -11.6276 -9.0775 -164.1725 0.0000 -25.0631 0.0827 -0.1744 64.6492 -0.1930 0.0000 24.4889 2.9064 -25.1427 -3.1936 160.5474 0.0000 -18.8878 -0.0827 0.1746 64.6492 0.1931 0.0000 25.5019 0.1883 
-1.7147 99.1669 8.7227 0.0000 1.3830 1.3457 0.0000 0.0000 0.0000 0.0000 0.0000 0.0000 -23.5233 0.0000 0.0000 -270.0000 90.0000 0.0000 -19.8375 38.5468 22.0661 0.0000 0.0000 36.3958 0.0000 0.0000 0.0000 4.4556 17.5008 8.6883 0.0000 18.0000 0.0000 0.0000 17.9987 -0.0008 0.0000 17.9996 5.4001 0.0000 18.0000 0.0000 0.0001 18.0000 0.0001 -22.7691 18.0024 -13.2938 -0.0003 17.9994 0.0003 0.0000 18.0004 -0.0006 -11.4059 19.2849 -1.9366 0.0000 18.0000 0.0000 0.0000 17.9990 -0.0001 59.0813 -12.4334 28.1708 -0.3546 6.3513 -6.3900 -0.3550 6.3509 -6.3901 0.0000 0.0000 0.0000 14.2238 32.9767 -4.5732 270.0001 90.0000 0.0000 50.1402 50.6421 14.5621 0.0000 0.0000 -48.7388 0.0000 0.0000 0.0000 -4.4558 17.5007 -8.6881 0.0000 18.0000 0.0000 0.0000 17.9994 0.0002 -0.0001 17.9999 -5.3999 0.0000 18.0000 0.0000 0.0000 18.0000 0.0000 22.7693 18.0026 13.2939 0.0000 17.9989 0.0001 0.0000 17.9992 0.0002 11.4057 19.2849 1.9367 0.0000 18.0000 0.0000 0.0000 17.9992 0.0000 -59.0813 -12.4333 -28.1704 0.3548 6.3506 6.3897 0.3549 6.3508 6.3902 -10.9539 -9.2434 -163.6064 0.0000 -25.3757 0.0826 -0.1744 64.6492 -0.1930 0.0000 24.4480 3.0194 -26.8360 -4.1105 159.4052 0.0000 -19.2431 -0.0827 0.1745 64.6491 0.1931 0.0000 25.6189 0.2241 
-1.6502 97.6617 8.9590 0.0000 1.4364 1.4470 0.0000 0.0000 0.0000 0.0000 0.0000 0.0000 -23.5664 0.0000 0.0000 -270.0000 90.0000 0.0000 -22.5052 34.3976 20.7744 0.0000 0.0000 34.8938 0.0000 0.0000 0.0000 4.4556 17.5008 8.6883 0.0000 18.0001 0.0000 0.0000 17.9987 -0.0008 0.0000 17.9996 5.4001 0.0000 18.0000 0.0000 0.0001 18.0000 0.0001 -22.7691 18.0024 -13.2938 -0.0003 17.9994 0.0003 -0.0001 18.0004 -0.0006 -11.4059 19.2849 -1.9366 0.0000 18.0000 0.0000 0.0000 17.9990 -0.0001 59.0813 -12.4334 28.1708 -0.3546 6.3513 -6.3900 -0.3550 6.3509 -6.3901 0.0000 0.0000 0.0000 14.6378 32.7928 -4.5285 270.0001 90.0000 0.0000 54.5540 46.7618 17.0588 0.0000 0.0000 -48.3862 0.0000 0.0000 0.0000 -4.4558 17.5007 -8.6881 0.0000 18.0000 0.0000 0.0000 17.9994 0.0002 0.0000 17.9999 -5.3999 0.0000 18.0000 0.0000 0.0000 18.0000 0.0000 22.7693 18.0026 13.2939 0.0000 17.9989 0.0001 -0.0001 17.9992 0.0002 11.4058 19.2849 1.9367 0.0000 18.0000 0.0000 0.0000 17.9992 0.0000 -59.0813 -12.4333 -28.1704 0.3547 6.3506 6.3897 0.3549 6.3508 6.3902 -10.2180 -9.4276 -163.0798 0.0000 -25.7048 0.0826 -0.1744 64.6491 -0.1930 0.0000 24.4072 3.1260 -28.5672 -5.1168 158.3416 0.0000 -19.6103 -0.0827 0.1746 64.6492 0.1932 0.0000 25.7407 0.2613 
-1.6033 95.8846 9.2193 0.0000 1.5090 1.5505 0.0000 0.0000 0.0000 0.0000 0.0000 0.0000 -23.5736 0.0000 0.0000 -270.0000 90.0000 0.0000 -25.2980 30.0247 19.1652 0.0000 0.0000 33.5039 0.0000 0.0000 0.0000 4.4556 17.5008 8.6883 0.0000 18.0001 0.0000 0.0000 17.9987 -0.0008 0.0000 17.9996 5.4001 0.0000 18.0000 0.0000 0.0001 18.0000 0.0001 -22.7691 18.0024 -13.2938 -0.0003 17.9994 0.0003 0.0000 18.0004 -0.0006 -11.4059 19.2849 -1.9366 0.0000 18.0000 0.0000 0.0000 17.9990 -0.0002 59.0813 -12.4334 28.1708 -0.3546 6.3513 -6.3900 -0.3550 6.3509 -6.3901 0.0000 0.0000 0.0000 15.0186 32.5591 -4.4617 270.0001 90.0000 0.0000 57.7399 42.5882 18.3280 -0.0001 0.0000 -47.9304 0.0000 0.0000 0.0000 -4.4558 17.5007 -8.6880 0.0000 18.0000 0.0000 0.0000 17.9994 0.0002 -0.0001 17.9999 -5.3999 0.0000 18.0000 0.0000 0.0000 18.0000 0.0000 22.7693 18.0026 13.2939 0.0000 17.9989 0.0001 -0.0001 17.9992 0.0002 11.4057 19.2849 1.9367 0.0000 18.0000 0.0000 0.0000 17.9992 0.0000 -59.0813 -12.4333 -28.1703 0.3548 6.3506 6.3897 0.3549 6.3508 6.3902 -9.4097 -9.6132 -162.6208 0.0000 -26.0346 0.0827 -0.1744 64.6491 -0.1930 0.0000 24.3677 3.2217 -30.2995 -6.1618 157.4061 0.0000 -19.9752 -0.0827 0.1746 64.6491 0.1932 0.0000 25.8591 0.2975 
-1.5664 93.8703 9.4868 0.0000 1.5888 1.6527 0.0000 0.0000 0.0000 0.0000 0.0000 0.0000 -23.5607 0.0000 0.0000 -270.0000 90.0000 0.0000 -28.1914 25.5835 17.5622 0.0000 0.0000 31.9652 0.0000 0.0000 0.0000 4.4556 17.5008 8.6883 0.0000 18.0001 0.0000 0.0000 17.9987 -0.0008 0.0000 17.9996 5.4001 0.0000 18.0001 0.0001 0.0001 18.0000 0.0001 -22.7691 18.0024 -13.2938 -0.0003 17.9994 0.0003 -0.0001 18.0004 -0.0006 -11.4059 19.2848 -1.9366 0.0000 18.0000 0.0000 0.0000 17.9990 -0.0001 59.0812 -12.4334 28.1708 -0.3546 6.3513 -6.3900 -0.3550 6.3509 -6.3901 0.0000 0.0000 0.0000 15.3773 32.3060 -4.3836 270.0001 90.0000 0.0000 60.0891 38.2732 18.6258 0.0000 0.0000 -47.2019 0.0000 0.0000 0.0000 -4.4558 17.5007 -8.6881 0.0000 18.0000 0.0000 0.0000 17.9993 0.0002 -0.0001 17.9999 -5.3999 0.0000 18.0000 0.0000 0.0000 18.0000 0.0000 22.7693 18.0026 13.2939 0.0000 17.9989 0.0001 0.0000 17.9992 0.0002 11.4057 19.2849 1.9367 0.0000 18.0000 0.0000 0.0000 17.9992 0.0000 -59.0813 -12.4333 -28.1704 0.3547 6.3506 6.3897 0.3549 6.3508 6.3902 -8.5845 -9.7956 -162.1849 0.0000 -26.3587 0.0826 -0.1744 64.6492 -0.1930 0.0000 24.3285 3.3134 -31.5492 -7.0571 156.5790 0.0000 -20.3507 -0.0827 0.1745 64.6491 0.1931 0.0000 25.9625 0.3318 
-1.5492 92.1341 9.7769 0.0000 1.6812 1.7529 0.0000 0.0000 0.0000 0.0000 0.0000 0.0000 -23.4880 0.0000 0.0000 -270.0000 90.0000 0.0000 -31.4010 21.0466 15.6996 0.0000 0.0000 30.4552 0.0000 0.0000 0.0000 4.4556 17.5008 8.6883 0.0000 18.0001 0.0000 0.0000 17.9987 -0.0008 0.0000 17.9996 5.4001 0.0000 18.0001 0.0000 0.0001 18.0000 0.0001 -22.7691 18.0024 -13.2938 -0.0003 17.9994 0.0003 0.0000 18.0004 -0.0006 -11.4059 19.2849 -1.9366 0.0000 18.0000 0.0000 0.0000 17.9990 -0.0001 59.0813 -12.4334 28.1708 -0.3546 6.3513 -6.3900 -0.3550 6.3509 -6.3901 0.0000 0.0000 0.0000 15.6603 32.0042 -4.2762 270.0001 90.0000 0.0000 61.8226 33.9801 18.1793 0.0000 0.0000 -46.2400 0.0000 0.0000 0.0000 -4.4558 17.5007 -8.6881 0.0000 18.0000 0.0000 0.0000 17.9994 0.0002 -0.0001 17.9999 -5.3999 0.0000 18.0000 0.0000 0.0000 18.0000 0.0000 22.7693 18.0026 13.2939 0.0000 17.9989 0.0001 0.0000 17.9992 0.0002 11.4057 19.2849 1.9367 0.0000 18.0000 0.0000 0.0000 17.9991 0.0000 -59.0813 -12.4333 -28.1704 0.3547 6.3506 6.3897 0.3549 6.3508 6.3902 -7.7242 -9.9524 -161.8125 0.0000 -26.6558 0.0826 -0.1744 64.6492 -0.1930 0.0000 24.2913 3.3946 -32.6486 -7.8734 155.8774 0.0000 -20.7156 -0.0827 0.1745 64.6492 0.1931 0.0000 26.0535 0.3630 
